<svg width="80" height="80" viewBox="0 0 80 80" fill="none" xmlns="http://www.w3.org/2000/svg">
<path d="M25.6239 35.6495C20.4872 36.8711 16.6666 41.4893 16.6666 47C16.6666 53.4432 21.89 58.6666 28.3333 58.6666C29.4386 58.6666 30.508 58.513 31.5212 58.2258" stroke="#B2B2BE" stroke-width="4" stroke-linecap="round" stroke-linejoin="round"/>
<path d="M54.0638 35.6495C59.2006 36.8711 63.0211 41.4893 63.0211 47C63.0211 53.4432 57.7978 58.6666 51.3544 58.6666C50.2491 58.6666 49.1798 58.513 48.1665 58.2258" stroke="#B2B2BE" stroke-width="4" stroke-linecap="round" stroke-linejoin="round"/>
<path d="M54 35.3333C54 27.6013 47.732 21.3333 40 21.3333C32.268 21.3333 26 27.6013 26 35.3333" stroke="#B2B2BE" stroke-width="4" stroke-linecap="round" stroke-linejoin="round"/>
<path d="M31.9095 44.5278L39.9998 36.4108L48.3203 44.6666" stroke="#B2B2BE" stroke-width="4" stroke-linecap="round" stroke-linejoin="round"/>
<path d="M40 56.3333V40.5388" stroke="#B2B2BE" stroke-width="4" stroke-linecap="round" stroke-linejoin="round"/>
<rect x="1" y="1" width="78" height="78" stroke="#B2B2BE" stroke-width="2" stroke-linejoin="round" stroke-dasharray="10 10"/>
</svg>
